<svg xmlns="http://www.w3.org/2000/svg" width="64" height="64" fill="none"><g clip-path="url(#a)"><path fill="#fff" d="M0 0h64v64H0z"/><path fill="#fff" d="M64 0H0v64h64V0Z"/><path fill="#000" d="M15.7 2.8h-1.5v1.5h1.5V2.8Z"/><path fill="#000" d="M17.1 2.8h-1.5v1.5h1.5V2.8Zm1.4 0h-1.4v1.5h1.4V2.8Zm2.9 0h-1.5v1.5h1.5V2.8Z"/><path fill="#000" d="M22.8 2.8h-1.5v1.5h1.5V2.8Zm2.8 0h-1.4v1.5h1.4V2.8Zm5.7 0H30v1.5h1.4V2.8Z"/><path fill="#000" d="M32.8 2.8h-1.5v1.5h1.5V2.8Z"/><path fill="#000" d="M34.2 2.8h-1.5v1.5h1.5V2.8Z"/><path fill="#000" d="M35.6 2.8h-1.5v1.5h1.5V2.8Zm1.4 0h-1.4v1.5H37V2.8Zm1.4 0H37v1.5h1.4V2.8Zm2.9 0h-1.5v1.5h1.5V2.8Zm2.8 0h-1.4v1.5H44V2.8Z"/><path fill="#000" d="M45.6 2.8H44v1.5h1.5V2.8Z"/><path fill="#000" d="M47 2.8h-1.5v1.5H47V2.8Z"/><path fill="#000" d="M48.4 2.8h-1.5v1.5h1.5V2.8Zm1.4 0h-1.4v1.5h1.4V2.8ZM15.7 4.3h-1.5v1.4h1.5V4.3Z"/><path fill="#000" d="M17.1 4.3h-1.5v1.4h1.5V4.3Zm1.4 0h-1.4v1.4h1.4V4.3Zm5.7 0h-1.4v1.4h1.4V4.3Zm5.8 0h-1.6v1.4H30V4.3Zm1.3 0H30v1.4h1.4V4.3Z"/><path fill="#000" d="M32.8 4.3h-1.5v1.4h1.5V4.3Zm5.6 0H37v1.4h1.4V4.3Zm4.3 0h-1.5v1.4h1.5V4.3Zm2.9 0H44v1.4h1.5V4.3Zm4.2 0h-1.4v1.4h1.4V4.3ZM15.7 5.7h-1.5v1.5h1.5V5.7Zm4.3 0h-1.5v1.5H20V5.7Zm2.8 0h-1.5v1.5h1.5V5.7Zm4.2 0h-1.4v1.5h1.5V5.7Zm3 0h-1.6v1.5H30V5.7Zm1.3 0H30v1.5h1.4V5.7Z"/><path fill="#000" d="M32.8 5.7h-1.5v1.5h1.5V5.7Zm8.5 0h-1.5v1.5h1.5V5.7Z"/><path fill="#000" d="M42.7 5.7h-1.5v1.5h1.5V5.7Zm1.4 0h-1.4v1.5H44V5.7Z"/><path fill="#000" d="M45.6 5.7H44v1.5h1.5V5.7Z"/><path fill="#000" d="M47 5.7h-1.5v1.5H47V5.7Z"/><path fill="#000" d="M48.4 5.7h-1.5v1.5h1.5V5.7ZM17.1 7.1h-1.5v1.5h1.5V7Zm1.4 0h-1.4v1.5h1.4V7Zm1.5 0h-1.5v1.5H20V7Z"/><path fill="#000" d="M21.4 7.1h-1.5v1.5h1.5V7Zm2.8 0h-1.4v1.5h1.4V7Zm2.8 0h-1.4v1.5h1.5V7Z"/><path fill="#000" d="M28.5 7.1H27v1.5h1.5V7Z"/><path fill="#000" d="M30 7.1h-1.6v1.5H30V7Zm2.8 0h-1.5v1.5h1.5V7Z"/><path fill="#000" d="M34.2 7.1h-1.5v1.5h1.5V7Z"/><path fill="#000" d="M35.6 7.1h-1.5v1.5h1.5V7Zm1.4 0h-1.4v1.5H37V7Zm1.4 0H37v1.5h1.4V7Zm-17 1.4h-1.5V10h1.5V8.5Z"/><path fill="#000" d="M22.8 8.5h-1.5V10h1.5V8.5Zm5.7 0H27V10h1.5V8.5Z"/><path fill="#000" d="M30 8.5h-1.6V10H30V8.5Zm4.2 0h-1.5V10h1.5V8.5Z"/><path fill="#000" d="M35.6 8.5h-1.5V10h1.5V8.5Zm1.4 0h-1.4V10H37V8.5Zm2.9 0h-1.5V10h1.5V8.5Z"/><path fill="#000" d="M41.3 8.5h-1.5V10h1.5V8.5Zm2.8 0h-1.4V10H44V8.5Zm2.9 0h-1.5V10H47V8.5Z"/><path fill="#000" d="M48.4 8.5h-1.5V10h1.5V8.5Zm1.4 0h-1.4V10h1.4V8.5ZM15.7 10h-1.5v1.4h1.5V10Z"/><path fill="#000" d="M17.1 10h-1.5v1.4h1.5V10Zm2.9 0h-1.5v1.4H20V10Z"/><path fill="#000" d="M21.4 10h-1.5v1.4h1.5V10Zm8.6 0h-1.6v1.4H30V10Zm5.6 0h-1.5v1.4h1.5V10Zm1.4 0h-1.4v1.4H37V10Zm5.7 0h-1.5v1.4h1.5V10Zm1.4 0h-1.4v1.4H44V10Z"/><path fill="#000" d="M45.6 10H44v1.4h1.5V10Z"/><path fill="#000" d="M47 10h-1.5v1.4H47V10Zm2.8 0h-1.4v1.4h1.4V10Zm-34.1 1.4h-1.5v1.4h1.5v-1.4Zm2.8 0h-1.4v1.4h1.4v-1.4Zm2.9 0h-1.5v1.4h1.5v-1.4Zm2.8 0h-1.4v1.4h1.4v-1.4Zm2.8 0h-1.4v1.4h1.5v-1.4Zm3 0h-1.6v1.4H30v-1.4Zm2.8 0h-1.5v1.4h1.5v-1.4Zm2.8 0h-1.5v1.4h1.5v-1.4Zm2.8 0H37v1.4h1.4v-1.4Zm2.9 0h-1.5v1.4h1.5v-1.4Zm2.8 0h-1.4v1.4H44v-1.4Zm2.9 0h-1.5v1.4H47v-1.4Zm2.8 0h-1.4v1.4h1.4v-1.4Zm-34.1 1.4h-1.5v1.5h1.5v-1.5Z"/><path fill="#000" d="M17.1 12.8h-1.5v1.5h1.5v-1.5Zm1.4 0h-1.4v1.5h1.4v-1.5Zm1.5 0h-1.5v1.5H20v-1.5Z"/><path fill="#000" d="M21.4 12.8h-1.5v1.5h1.5v-1.5Z"/><path fill="#000" d="M22.8 12.8h-1.5v1.5h1.5v-1.5Zm2.8 0h-1.4v1.5h1.4v-1.5Zm2.9 0H27v1.5h1.5v-1.5Z"/><path fill="#000" d="M30 12.8h-1.6v1.5H30v-1.5Zm2.8 0h-1.5v1.5h1.5v-1.5Z"/><path fill="#000" d="M34.2 12.8h-1.5v1.5h1.5v-1.5Zm2.8 0h-1.4v1.5H37v-1.5Zm1.4 0H37v1.5h1.4v-1.5Zm1.5 0h-1.5v1.5h1.5v-1.5Z"/><path fill="#000" d="M41.3 12.8h-1.5v1.5h1.5v-1.5Z"/><path fill="#000" d="M42.7 12.8h-1.5v1.5h1.5v-1.5ZM7.2 14.2H5.7v1.5h1.5v-1.5Z"/><path fill="#000" d="M8.6 14.2H7v1.5h1.5v-1.5Z"/><path fill="#000" d="M10 14.2H8.5v1.5H10v-1.5Zm2.8 0h-1.4v1.5h1.4v-1.5Zm2.9 0h-1.5v1.5h1.5v-1.5Z"/><path fill="#000" d="M17.1 14.2h-1.5v1.5h1.5v-1.5Zm4.3 0h-1.5v1.5h1.5v-1.5Zm2.8 0h-1.4v1.5h1.4v-1.5Zm1.4 0h-1.4v1.5h1.4v-1.5Zm4.4 0h-1.6v1.5H30v-1.5Zm4.2 0h-1.5v1.5h1.5v-1.5Z"/><path fill="#000" d="M35.6 14.2h-1.5v1.5h1.5v-1.5Zm4.3 0h-1.5v1.5h1.5v-1.5Zm4.2 0h-1.4v1.5H44v-1.5Z"/><path fill="#000" d="M45.6 14.2H44v1.5h1.5v-1.5Zm5.6 0h-1.4v1.5h1.4v-1.5Zm1.5 0h-1.5v1.5h1.5v-1.5Z"/><path fill="#000" d="M54 14.2h-1.4v1.5h1.5v-1.5Zm4.4 0h-1.5v1.5h1.5v-1.5Z"/><path fill="#000" d="M59.8 14.2h-1.5v1.5h1.5v-1.5Z"/><path fill="#000" d="M61.2 14.2h-1.5v1.5h1.5v-1.5ZM5.7 15.6H4.3v1.5h1.4v-1.5Zm1.5 0H5.7v1.5h1.5v-1.5Z"/><path fill="#000" d="M8.6 15.6H7v1.5h1.5v-1.5Z"/><path fill="#000" d="M10 15.6H8.5v1.5H10v-1.5Zm4.3 0h-1.5v1.5h1.5v-1.5Z"/><path fill="#000" d="M15.7 15.6h-1.5v1.5h1.5v-1.5Zm2.8 0h-1.4v1.5h1.4v-1.5Zm1.5 0h-1.5v1.5H20v-1.5Zm2.8 0h-1.5v1.5h1.5v-1.5Zm1.4 0h-1.4v1.5h1.4v-1.5Zm1.4 0h-1.4v1.5h1.4v-1.5Zm4.4 0h-1.6v1.5H30v-1.5Zm1.3 0H30v1.5h1.4v-1.5Zm4.3 0h-1.5v1.5h1.5v-1.5Zm4.3 0h-1.5v1.5h1.5v-1.5Z"/><path fill="#000" d="M41.3 15.6h-1.5v1.5h1.5v-1.5Zm2.8 0h-1.4v1.5H44v-1.5Z"/><path fill="#000" d="M45.6 15.6H44v1.5h1.5v-1.5Zm2.8 0h-1.5v1.5h1.5v-1.5Zm1.4 0h-1.4v1.5h1.4v-1.5Zm1.4 0h-1.4v1.5h1.4v-1.5Zm1.5 0h-1.5v1.5h1.5v-1.5Z"/><path fill="#000" d="M54 15.6h-1.4v1.5h1.5v-1.5Z"/><path fill="#000" d="M55.5 15.6H54v1.5h1.5v-1.5Zm2.9 0h-1.5v1.5h1.5v-1.5Z"/><path fill="#000" d="M59.8 15.6h-1.5v1.5h1.5v-1.5Z"/><path fill="#000" d="M61.2 15.6h-1.5v1.5h1.5v-1.5ZM4.3 17H2.8v1.5h1.5v-1.4Zm4.3 0H7v1.5h1.5v-1.4Zm4.2 0h-1.4v1.5h1.4v-1.4Zm2.9 0h-1.5v1.5h1.5v-1.4Z"/><path fill="#000" d="M17.1 17h-1.5v1.5h1.5v-1.4Zm2.9 0h-1.5v1.5H20v-1.4Z"/><path fill="#000" d="M21.4 17h-1.5v1.5h1.5v-1.4Z"/><path fill="#000" d="M22.8 17h-1.5v1.5h1.5v-1.4Zm2.8 0h-1.4v1.5h1.4v-1.4Zm1.4 0h-1.4v1.5h1.5v-1.4Zm8.6 0h-1.5v1.5h1.5v-1.4Zm7.1 0h-1.5v1.5h1.5v-1.4Zm1.4 0h-1.4v1.5H44v-1.4Zm5.7 0h-1.4v1.5h1.4v-1.4Zm2.9 0h-1.5v1.5h1.5v-1.4Z"/><path fill="#000" d="M54 17h-1.4v1.5h1.5v-1.4Z"/><path fill="#000" d="M55.5 17H54v1.5h1.5v-1.4Zm4.3 0h-1.5v1.5h1.5v-1.4ZM7.2 18.5H5.7V20h1.5v-1.5Zm7.1 0h-1.5V20h1.5v-1.5Z"/><path fill="#000" d="M15.7 18.5h-1.5V20h1.5v-1.5Z"/><path fill="#000" d="M17.1 18.5h-1.5V20h1.5v-1.5Zm5.7 0h-1.5V20h1.5v-1.5Zm5.7 0H27V20h1.5v-1.5Zm2.8 0H30V20h1.4v-1.5Z"/><path fill="#000" d="M32.8 18.5h-1.5V20h1.5v-1.5Z"/><path fill="#000" d="M34.2 18.5h-1.5V20h1.5v-1.5Z"/><path fill="#000" d="M35.6 18.5h-1.5V20h1.5v-1.5Zm1.4 0h-1.4V20H37v-1.5Zm1.4 0H37V20h1.4v-1.5Zm1.5 0h-1.5V20h1.5v-1.5Zm2.8 0h-1.5V20h1.5v-1.5Zm5.7 0h-1.5V20h1.5v-1.5Zm1.4 0h-1.4V20h1.4v-1.5Zm1.4 0h-1.4V20h1.4v-1.5Zm1.5 0h-1.5V20h1.5v-1.5Zm4.3 0h-1.5V20h1.4v-1.5ZM4.3 20H2.8v1.4h1.5v-1.5Zm2.9 0H5.7v1.4h1.5v-1.5Z"/><path fill="#000" d="M8.6 20H7v1.4h1.5v-1.5Zm2.8 0H10v1.4h1.4v-1.5Zm1.4 0h-1.4v1.4h1.4v-1.5Zm7.2 0h-1.5v1.4H20v-1.5Z"/><path fill="#000" d="M21.4 20h-1.5v1.4h1.5v-1.5Z"/><path fill="#000" d="M22.8 20h-1.5v1.4h1.5v-1.5Zm2.8 0h-1.4v1.4h1.4v-1.5Zm1.4 0h-1.4v1.4h1.5v-1.5Zm4.3 0H30v1.4h1.4v-1.5Zm5.7 0h-1.4v1.4H37v-1.5Zm1.4 0H37v1.4h1.4v-1.5Zm4.3 0h-1.5v1.4h1.5v-1.5Zm2.9 0H44v1.4h1.5v-1.5Zm2.8 0h-1.5v1.4h1.5v-1.5Zm1.4 0h-1.4v1.4h1.4v-1.5Zm2.9 0h-1.5v1.4h1.5v-1.5Zm4.3 0h-1.5v1.4h1.4v-1.5Z"/><path fill="#000" d="M58.4 20h-1.5v1.4h1.5v-1.5ZM4.3 21.3H2.8v1.5h1.5v-1.5Zm1.4 0H4.3v1.5h1.4v-1.5Zm5.7 0H10v1.5h1.4v-1.5Zm4.3 0h-1.5v1.5h1.5v-1.5Zm2.8 0h-1.4v1.5h1.4v-1.5Zm1.5 0h-1.5v1.5H20v-1.5Z"/><path fill="#000" d="M21.4 21.3h-1.5v1.5h1.5v-1.5Zm5.6 0h-1.4v1.5h1.5v-1.5Z"/><path fill="#000" d="M28.5 21.3H27v1.5h1.5v-1.5Zm8.5 0h-1.4v1.5H37v-1.5Zm1.4 0H37v1.5h1.4v-1.5Zm4.3 0h-1.5v1.5h1.5v-1.5Zm1.4 0h-1.4v1.5H44v-1.5Z"/><path fill="#000" d="M45.6 21.3H44v1.5h1.5v-1.5Z"/><path fill="#000" d="M47 21.3h-1.5v1.5H47v-1.5Zm4.2 0h-1.4v1.5h1.4v-1.5Zm2.8 0h-1.4v1.5h1.5v-1.5Z"/><path fill="#000" d="M55.5 21.3H54v1.5h1.5v-1.5Zm1.5 0h-1.5v1.5h1.4v-1.5Z"/><path fill="#000" d="M58.4 21.3h-1.5v1.5h1.5v-1.5Z"/><path fill="#000" d="M59.8 21.3h-1.5v1.5h1.5v-1.5Z"/><path fill="#000" d="M61.2 21.3h-1.5v1.5h1.5v-1.5ZM4.3 22.8H2.8v1.4h1.5v-1.4Zm2.9 0H5.7v1.4h1.5v-1.4Z"/><path fill="#000" d="M8.6 22.8H7v1.4h1.5v-1.4Z"/><path fill="#000" d="M10 22.8H8.5v1.4H10v-1.4Zm2.8 0h-1.4v1.4h1.4v-1.4Zm2.9 0h-1.5v1.4h1.5v-1.4Zm4.3 0h-1.5v1.4H20v-1.4Z"/><path fill="#000" d="M21.4 22.8h-1.5v1.4h1.5v-1.4Z"/><path fill="#000" d="M22.8 22.8h-1.5v1.4h1.5v-1.4Zm2.8 0h-1.4v1.4h1.4v-1.4Zm2.9 0H27v1.4h1.5v-1.4Z"/><path fill="#000" d="M30 22.8h-1.6v1.4H30v-1.4Zm11.3 0h-1.5v1.4h1.5v-1.4Zm4.3 0H44v1.4h1.5v-1.4Zm4.2 0h-1.4v1.4h1.4v-1.4Zm1.4 0h-1.4v1.4h1.4v-1.4Zm2.8 0h-1.4v1.4h1.5v-1.4Zm3 0h-1.5v1.4h1.4v-1.4ZM4.3 24.2H2.8v1.4h1.5v-1.4Zm1.4 0H4.3v1.4h1.4v-1.4Zm2.9 0H7v1.4h1.5v-1.4Zm2.8 0H10v1.4h1.4v-1.4Zm2.9 0h-1.5v1.4h1.5v-1.4Z"/><path fill="#000" d="M15.7 24.2h-1.5v1.4h1.5v-1.4Z"/><path fill="#000" d="M17.1 24.2h-1.5v1.4h1.5v-1.4Zm1.4 0h-1.4v1.4h1.4v-1.4Zm2.9 0h-1.5v1.4h1.5v-1.4Z"/><path fill="#000" d="M22.8 24.2h-1.5v1.4h1.5v-1.4Zm1.4 0h-1.4v1.4h1.4v-1.4Zm1.4 0h-1.4v1.4h1.4v-1.4Zm5.7 0H30v1.4h1.4v-1.4Zm4.3 0h-1.5v1.4h1.5v-1.4Zm1.4 0h-1.4v1.4H37v-1.4Zm2.9 0h-1.5v1.4h1.5v-1.4Zm4.2 0h-1.4v1.4H44v-1.4Zm8.6 0h-1.5v1.4h1.5v-1.4Z"/><path fill="#000" d="M54 24.2h-1.4v1.4h1.5v-1.4Zm3 0h-1.5v1.4h1.4v-1.4Zm2.8 0h-1.5v1.4h1.5v-1.4ZM4.3 25.6H2.8v1.5h1.5v-1.5Zm2.9 0H5.7v1.5h1.5v-1.5Zm5.6 0h-1.4v1.5h1.4v-1.5Zm2.9 0h-1.5v1.5h1.5v-1.5Z"/><path fill="#000" d="M17.1 25.6h-1.5v1.5h1.5v-1.5Zm1.4 0h-1.4v1.5h1.4v-1.5Zm1.5 0h-1.5v1.5H20v-1.5Zm2.8 0h-1.5v1.5h1.5v-1.5Zm2.8 0h-1.4v1.5h1.4v-1.5Zm1.4 0h-1.4v1.5h1.5v-1.5Zm3 0h-1.6v1.5H30v-1.5Zm2.8 0h-1.5v1.5h1.5v-1.5Z"/><path fill="#000" d="M34.2 25.6h-1.5v1.5h1.5v-1.5Zm7.1 0h-1.5v1.5h1.5v-1.5Zm4.3 0H44v1.5h1.5v-1.5Zm5.6 0h-1.4v1.5h1.4v-1.5Zm2.8 0h-1.4v1.5h1.5v-1.5Zm3 0h-1.5v1.5h1.4v-1.5Z"/><path fill="#000" d="M58.4 25.6h-1.5v1.5h1.5v-1.5Zm2.8 0h-1.5v1.5h1.5v-1.5ZM5.7 27H4.3v1.5h1.4V27Zm2.9 0H7v1.5h1.5V27Z"/><path fill="#000" d="M10 27H8.5v1.5H10V27Zm1.4 0H10v1.5h1.4V27Zm2.9 0h-1.5v1.5h1.5V27Zm2.8 0h-1.5v1.5h1.5V27Zm7.1 0h-1.4v1.5h1.4V27Zm5.8 0h-1.6v1.5H30V27Zm2.8 0h-1.5v1.5h1.5V27Z"/><path fill="#000" d="M34.2 27h-1.5v1.5h1.5V27Z"/><path fill="#000" d="M35.6 27h-1.5v1.5h1.5V27Zm1.4 0h-1.4v1.5H37V27Zm1.4 0H37v1.5h1.4V27Zm1.5 0h-1.5v1.5h1.5V27Zm4.2 0h-1.4v1.5H44V27Zm2.9 0h-1.5v1.5H47V27Z"/><path fill="#000" d="M48.4 27h-1.5v1.5h1.5V27Zm1.4 0h-1.4v1.5h1.4V27Zm2.9 0h-1.5v1.5h1.5V27Z"/><path fill="#000" d="M54 27h-1.4v1.5h1.5V27Z"/><path fill="#000" d="M55.5 27H54v1.5h1.5V27Zm1.5 0h-1.5v1.5h1.4V27Z"/><path fill="#000" d="M58.4 27h-1.5v1.5h1.5V27Z"/><path fill="#000" d="M59.8 27h-1.5v1.5h1.5V27Z"/><path fill="#000" d="M61.2 27h-1.5v1.5h1.5V27ZM4.3 28.4H2.8V30h1.5v-1.5Zm1.4 0H4.3V30h1.4v-1.5Zm2.9 0H7V30h1.5v-1.5Zm4.2 0h-1.4V30h1.4v-1.5Zm2.9 0h-1.5V30h1.5v-1.5Z"/><path fill="#000" d="M17.1 28.4h-1.5V30h1.5v-1.5Zm2.9 0h-1.5V30H20v-1.5Zm4.2 0h-1.4V30h1.4v-1.5Zm2.8 0h-1.4V30h1.5v-1.5Z"/><path fill="#000" d="M28.5 28.4H27V30h1.5v-1.5Zm2.8 0H30V30h1.4v-1.5Z"/><path fill="#000" d="M32.8 28.4h-1.5V30h1.5v-1.5Zm4.2 0h-1.4V30H37v-1.5Zm1.4 0H37V30h1.4v-1.5Zm2.9 0h-1.5V30h1.5v-1.5Z"/><path fill="#000" d="M42.7 28.4h-1.5V30h1.5v-1.5Zm1.4 0h-1.4V30H44v-1.5Zm2.9 0h-1.5V30H47v-1.5Zm5.7 0h-1.5V30h1.5v-1.5Zm2.8 0H54V30h1.5v-1.5Zm1.5 0h-1.5V30h1.4v-1.5Zm2.8 0h-1.5V30h1.5v-1.5ZM7.2 29.9H5.7v1.4h1.5V30Z"/><path fill="#000" d="M8.6 29.9H7v1.4h1.5V30Zm5.7 0h-1.5v1.4h1.5V30Z"/><path fill="#000" d="M15.7 29.9h-1.5v1.4h1.5V30Z"/><path fill="#000" d="M17.1 29.9h-1.5v1.4h1.5V30Zm2.9 0h-1.5v1.4H20V30Zm4.2 0h-1.4v1.4h1.4V30Zm2.8 0h-1.4v1.4h1.5V30Z"/><path fill="#000" d="M28.5 29.9H27v1.4h1.5V30Z"/><path fill="#000" d="M30 29.9h-1.6v1.4H30V30Zm4.2 0h-1.5v1.4h1.5V30Zm14.2 0h-1.5v1.4h1.5V30Zm1.4 0h-1.4v1.4h1.4V30Zm5.7 0H54v1.4h1.5V30Zm1.5 0h-1.5v1.4h1.4V30ZM5.7 31.3H4.3v1.5h1.4v-1.5Zm1.5 0H5.7v1.5h1.5v-1.5Zm5.6 0h-1.4v1.5h1.4v-1.5Zm4.3 0h-1.5v1.5h1.5v-1.5Zm1.4 0h-1.4v1.5h1.4v-1.5Zm4.3 0h-1.5v1.5h1.5v-1.5Zm5.7 0H27v1.5h1.5v-1.5Zm2.8 0H30v1.5h1.4v-1.5Z"/><path fill="#000" d="M32.8 31.3h-1.5v1.5h1.5v-1.5Zm4.2 0h-1.4v1.5H37v-1.5Zm5.7 0h-1.5v1.5h1.5v-1.5Zm4.3 0h-1.5v1.5H47v-1.5Z"/><path fill="#000" d="M48.4 31.3h-1.5v1.5h1.5v-1.5Zm2.8 0h-1.4v1.5h1.4v-1.5Zm2.8 0h-1.4v1.5h1.5v-1.5Z"/><path fill="#000" d="M55.5 31.3H54v1.5h1.5v-1.5Zm2.9 0h-1.5v1.5h1.5v-1.5ZM7.2 32.7H5.7v1.5h1.5v-1.5Z"/><path fill="#000" d="M8.6 32.7H7v1.5h1.5v-1.5Zm5.7 0h-1.5v1.5h1.5v-1.5Z"/><path fill="#000" d="M15.7 32.7h-1.5v1.5h1.5v-1.5Z"/><path fill="#000" d="M17.1 32.7h-1.5v1.5h1.5v-1.5Zm1.4 0h-1.4v1.5h1.4v-1.5Zm1.5 0h-1.5v1.5H20v-1.5Zm8.5 0H27v1.5h1.5v-1.5Z"/><path fill="#000" d="M30 32.7h-1.6v1.5H30v-1.5Zm2.8 0h-1.5v1.5h1.5v-1.5Z"/><path fill="#000" d="M34.2 32.7h-1.5v1.5h1.5v-1.5Zm7.1 0h-1.5v1.5h1.5v-1.5Zm2.8 0h-1.4v1.5H44v-1.5Zm4.3 0h-1.5v1.5h1.5v-1.5Zm1.4 0h-1.4v1.5h1.4v-1.5Zm1.4 0h-1.4v1.5h1.4v-1.5Zm1.5 0h-1.5v1.5h1.5v-1.5Zm2.8 0H54v1.5h1.5v-1.5Zm1.5 0h-1.5v1.5h1.4v-1.5Z"/><path fill="#000" d="M58.4 32.7h-1.5v1.5h1.5v-1.5Z"/><path fill="#000" d="M59.8 32.7h-1.5v1.5h1.5v-1.5Z"/><path fill="#000" d="M61.2 32.7h-1.5v1.5h1.5v-1.5ZM4.3 34.1H2.8v1.5h1.5v-1.5Zm4.3 0H7v1.5h1.5v-1.5Z"/><path fill="#000" d="M10 34.1H8.5v1.5H10v-1.5Zm2.8 0h-1.4v1.5h1.4v-1.5Zm1.5 0h-1.5v1.5h1.5v-1.5Zm2.8 0h-1.5v1.5h1.5v-1.5Zm1.4 0h-1.4v1.5h1.4v-1.5Zm1.5 0h-1.5v1.5H20v-1.5Zm4.2 0h-1.4v1.5h1.4v-1.5Zm1.4 0h-1.4v1.5h1.4v-1.5Zm4.4 0h-1.6v1.5H30v-1.5Zm1.3 0H30v1.5h1.4v-1.5Zm2.9 0h-1.5v1.5h1.5v-1.5Zm4.2 0H37v1.5h1.4v-1.5Zm1.5 0h-1.5v1.5h1.5v-1.5Zm2.8 0h-1.5v1.5h1.5v-1.5Zm2.9 0H44v1.5h1.5v-1.5Z"/><path fill="#000" d="M47 34.1h-1.5v1.5H47v-1.5Zm2.8 0h-1.4v1.5h1.4v-1.5Zm2.9 0h-1.5v1.5h1.5v-1.5Z"/><path fill="#000" d="M54 34.1h-1.4v1.5h1.5v-1.5Z"/><path fill="#000" d="M55.5 34.1H54v1.5h1.5v-1.5Zm1.5 0h-1.5v1.5h1.4v-1.5Z"/><path fill="#000" d="M58.4 34.1h-1.5v1.5h1.5v-1.5ZM8.6 35.6H7V37h1.5v-1.4Z"/><path fill="#000" d="M10 35.6H8.5V37H10v-1.4Zm1.4 0H10V37h1.4v-1.4Zm2.9 0h-1.5V37h1.5v-1.4Zm2.8 0h-1.5V37h1.5v-1.4Zm1.4 0h-1.4V37h1.4v-1.4Zm1.5 0h-1.5V37H20v-1.4Z"/><path fill="#000" d="M21.4 35.6h-1.5V37h1.5v-1.4Zm8.6 0h-1.6V37H30v-1.4Zm1.3 0H30V37h1.4v-1.4Z"/><path fill="#000" d="M32.8 35.6h-1.5V37h1.5v-1.4Zm2.8 0h-1.5V37h1.5v-1.4Zm4.3 0h-1.5V37h1.5v-1.4Z"/><path fill="#000" d="M41.3 35.6h-1.5V37h1.5v-1.4Zm2.8 0h-1.4V37H44v-1.4Zm7.1 0h-1.4V37h1.4v-1.4Zm1.5 0h-1.5V37h1.5v-1.4Zm2.8 0H54V37h1.5v-1.4Zm4.3 0h-1.5V37h1.5v-1.4Z"/><path fill="#000" d="M61.2 35.6h-1.5V37h1.5v-1.4ZM12.8 37h-1.4v1.4h1.4V37Zm2.9 0h-1.5v1.4h1.5V37Z"/><path fill="#000" d="M17.1 37h-1.5v1.4h1.5V37Zm2.9 0h-1.5v1.4H20V37Z"/><path fill="#000" d="M21.4 37h-1.5v1.4h1.5V37Z"/><path fill="#000" d="M22.8 37h-1.5v1.4h1.5V37Zm2.8 0h-1.4v1.4h1.4V37Zm4.4 0h-1.6v1.4H30V37Zm1.3 0H30v1.4h1.4V37Z"/><path fill="#000" d="M32.8 37h-1.5v1.4h1.5V37Z"/><path fill="#000" d="M34.2 37h-1.5v1.4h1.5V37Z"/><path fill="#000" d="M35.6 37h-1.5v1.4h1.5V37Zm2.8 0H37v1.4h1.4V37Zm2.9 0h-1.5v1.4h1.5V37Zm4.3 0H44v1.4h1.5V37Zm2.8 0h-1.5v1.4h1.5V37Zm12.8 0h-1.5v1.4h1.5V37ZM4.3 38.4H2.8v1.5h1.5v-1.5Zm2.9 0H5.7v1.5h1.5v-1.5Zm2.8 0H8.5v1.5H10v-1.5Zm4.3 0h-1.5v1.5h1.5v-1.5Zm4.2 0h-1.4v1.5h1.4v-1.5Zm4.3 0h-1.5v1.5h1.5v-1.5Zm1.4 0h-1.4v1.5h1.4v-1.5Zm7.1 0H30v1.5h1.4v-1.5Z"/><path fill="#000" d="M32.8 38.4h-1.5v1.5h1.5v-1.5Zm4.2 0h-1.4v1.5H37v-1.5Zm7.1 0h-1.4v1.5H44v-1.5Zm4.3 0h-1.5v1.5h1.5v-1.5Zm2.8 0h-1.4v1.5h1.4v-1.5Zm1.5 0h-1.5v1.5h1.5v-1.5Z"/><path fill="#000" d="M54 38.4h-1.4v1.5h1.5v-1.5Z"/><path fill="#000" d="M55.5 38.4H54v1.5h1.5v-1.5Zm1.5 0h-1.5v1.5h1.4v-1.5Zm2.8 0h-1.5v1.5h1.5v-1.5Z"/><path fill="#000" d="M61.2 38.4h-1.5v1.5h1.5v-1.5ZM4.3 39.8H2.8v1.5h1.5v-1.5Zm1.4 0H4.3v1.5h1.4v-1.5Zm4.3 0H8.5v1.5H10v-1.5Zm1.4 0H10v1.5h1.4v-1.5Zm1.4 0h-1.4v1.5h1.4v-1.5Zm2.9 0h-1.5v1.5h1.5v-1.5Zm2.8 0h-1.4v1.5h1.4v-1.5Zm5.7 0h-1.4v1.5h1.4v-1.5Zm1.4 0h-1.4v1.5h1.4v-1.5Zm2.9 0H27v1.5h1.5v-1.5Z"/><path fill="#000" d="M30 39.8h-1.6v1.5H30v-1.5Zm2.8 0h-1.5v1.5h1.5v-1.5Z"/><path fill="#000" d="M34.2 39.8h-1.5v1.5h1.5v-1.5Z"/><path fill="#000" d="M35.6 39.8h-1.5v1.5h1.5v-1.5Zm2.8 0H37v1.5h1.4v-1.5Zm2.9 0h-1.5v1.5h1.5v-1.5Z"/><path fill="#000" d="M42.7 39.8h-1.5v1.5h1.5v-1.5Zm1.4 0h-1.4v1.5H44v-1.5Zm5.7 0h-1.4v1.5h1.4v-1.5Zm1.4 0h-1.4v1.5h1.4v-1.5ZM4.3 41.2H2.8v1.5h1.5v-1.5Zm1.4 0H4.3v1.5h1.4v-1.5Zm1.5 0H5.7v1.5h1.5v-1.5Z"/><path fill="#000" d="M8.6 41.2H7v1.5h1.5v-1.5Z"/><path fill="#000" d="M10 41.2H8.5v1.5H10v-1.5Zm1.4 0H10v1.5h1.4v-1.5Zm5.7 0h-1.5v1.5h1.5v-1.5Zm2.9 0h-1.5v1.5H20v-1.5Zm2.8 0h-1.5v1.5h1.5v-1.5Zm1.4 0h-1.4v1.5h1.4v-1.5Zm1.4 0h-1.4v1.5h1.4v-1.5Zm2.9 0H27v1.5h1.5v-1.5Zm7.1 0h-1.5v1.5h1.5v-1.5Zm1.4 0h-1.4v1.5H37v-1.5Zm1.4 0H37v1.5h1.4v-1.5Zm8.6 0h-1.5v1.5H47v-1.5Z"/><path fill="#000" d="M48.4 41.2h-1.5v1.5h1.5v-1.5Zm1.4 0h-1.4v1.5h1.4v-1.5Zm5.7 0H54v1.5h1.5v-1.5Zm1.5 0h-1.5v1.5h1.4v-1.5ZM4.3 42.7H2.8V44h1.5v-1.4Zm1.4 0H4.3V44h1.4v-1.4Zm1.5 0H5.7V44h1.5v-1.4Z"/><path fill="#000" d="M8.6 42.7H7V44h1.5v-1.4Zm4.2 0h-1.4V44h1.4v-1.4Zm1.5 0h-1.5V44h1.5v-1.4Z"/><path fill="#000" d="M15.7 42.7h-1.5V44h1.5v-1.4Z"/><path fill="#000" d="M17.1 42.7h-1.5V44h1.5v-1.4Zm4.3 0h-1.5V44h1.5v-1.4Z"/><path fill="#000" d="M22.8 42.7h-1.5V44h1.5v-1.4Zm2.8 0h-1.4V44h1.4v-1.4Zm1.4 0h-1.4V44h1.5v-1.4Zm7.2 0h-1.5V44h1.5v-1.4Z"/><path fill="#000" d="M35.6 42.7h-1.5V44h1.5v-1.4Zm4.3 0h-1.5V44h1.5v-1.4Z"/><path fill="#000" d="M41.3 42.7h-1.5V44h1.5v-1.4Z"/><path fill="#000" d="M42.7 42.7h-1.5V44h1.5v-1.4Zm1.4 0h-1.4V44H44v-1.4Z"/><path fill="#000" d="M45.6 42.7H44V44h1.5v-1.4Zm2.8 0h-1.5V44h1.5v-1.4Zm2.8 0h-1.4V44h1.4v-1.4Zm5.8 0h-1.5V44h1.4v-1.4Z"/><path fill="#000" d="M58.4 42.7h-1.5V44h1.5v-1.4ZM4.3 44H2.8v1.6h1.5V44Zm4.3 0H7v1.6h1.5V44Z"/><path fill="#000" d="M10 44H8.5v1.6H10V44Zm8.5 0h-1.4v1.6h1.4V44Zm2.9 0h-1.5v1.6h1.5V44Zm4.2 0h-1.4v1.6h1.4V44Zm2.9 0H27v1.6h1.5V44Z"/><path fill="#000" d="M30 44h-1.6v1.6H30V44Zm1.3 0H30v1.6h1.4V44Zm7.1 0H37v1.6h1.4V44Zm2.9 0h-1.5v1.6h1.5V44Z"/><path fill="#000" d="M42.7 44h-1.5v1.6h1.5V44Zm2.9 0H44v1.6h1.5V44Z"/><path fill="#000" d="M47 44h-1.5v1.6H47V44Zm2.8 0h-1.4v1.6h1.4V44Zm4.2 0h-1.4v1.6h1.5V44Z"/><path fill="#000" d="M55.5 44H54v1.6h1.5V44Zm4.3 0h-1.5v1.6h1.5V44Z"/><path fill="#000" d="M61.2 44h-1.5v1.6h1.5V44ZM4.3 45.5H2.8V47h1.5v-1.5Zm2.9 0H5.7V47h1.5v-1.5Z"/><path fill="#000" d="M8.6 45.5H7V47h1.5v-1.5Zm2.8 0H10V47h1.4v-1.5Zm1.4 0h-1.4V47h1.4v-1.5Zm1.5 0h-1.5V47h1.5v-1.5Z"/><path fill="#000" d="M15.7 45.5h-1.5V47h1.5v-1.5Zm4.3 0h-1.5V47H20v-1.5Zm2.8 0h-1.5V47h1.5v-1.5Zm2.8 0h-1.4V47h1.4v-1.5Zm8.6 0h-1.5V47h1.5v-1.5Zm2.8 0h-1.4V47H37v-1.5Zm2.9 0h-1.5V47h1.5v-1.5Z"/><path fill="#000" d="M41.3 45.5h-1.5V47h1.5v-1.5Z"/><path fill="#000" d="M42.7 45.5h-1.5V47h1.5v-1.5Zm1.4 0h-1.4V47H44v-1.5Zm4.3 0h-1.5V47h1.5v-1.5Zm2.8 0h-1.4V47h1.4v-1.5Zm1.5 0h-1.5V47h1.5v-1.5Z"/><path fill="#000" d="M54 45.5h-1.4V47h1.5v-1.5Zm4.4 0h-1.5V47h1.5v-1.5ZM4.3 47H2.8v1.4h1.5v-1.5Zm7.1 0H10v1.4h1.4v-1.5Zm4.3 0h-1.5v1.4h1.5v-1.5Z"/><path fill="#000" d="M17.1 47h-1.5v1.4h1.5v-1.5Zm2.9 0h-1.5v1.4H20v-1.5Z"/><path fill="#000" d="M21.4 47h-1.5v1.4h1.5v-1.5Z"/><path fill="#000" d="M22.8 47h-1.5v1.4h1.5v-1.5Zm1.4 0h-1.4v1.4h1.4v-1.5Zm1.4 0h-1.4v1.4h1.4v-1.5Zm4.4 0h-1.6v1.4H30v-1.5Zm1.3 0H30v1.4h1.4v-1.5Z"/><path fill="#000" d="M32.8 47h-1.5v1.4h1.5v-1.5Zm4.2 0h-1.4v1.4H37v-1.5Zm4.3 0h-1.5v1.4h1.5v-1.5Z"/><path fill="#000" d="M42.7 47h-1.5v1.4h1.5v-1.5Zm5.7 0h-1.5v1.4h1.5v-1.5Zm1.4 0h-1.4v1.4h1.4v-1.5Zm1.4 0h-1.4v1.4h1.4v-1.5Zm1.5 0h-1.5v1.4h1.5v-1.5Z"/><path fill="#000" d="M54 47h-1.4v1.4h1.5v-1.5Zm3 0h-1.5v1.4h1.4v-1.5ZM4.3 48.4H2.8v1.4h1.5v-1.4Zm5.7 0H8.5v1.4H10v-1.4Zm1.4 0H10v1.4h1.4v-1.4Zm1.4 0h-1.4v1.4h1.4v-1.4Zm7.2 0h-1.5v1.4H20v-1.4Zm4.2 0h-1.4v1.4h1.4v-1.4Zm4.3 0H27v1.4h1.5v-1.4Z"/><path fill="#000" d="M30 48.4h-1.6v1.4H30v-1.4Zm1.3 0H30v1.4h1.4v-1.4Zm4.3 0h-1.5v1.4h1.5v-1.4Zm1.4 0h-1.4v1.4H37v-1.4Zm1.4 0H37v1.4h1.4v-1.4Zm4.3 0h-1.5v1.4h1.5v-1.4Zm2.9 0H44v1.4h1.5v-1.4Z"/><path fill="#000" d="M47 48.4h-1.5v1.4H47v-1.4Z"/><path fill="#000" d="M48.4 48.4h-1.5v1.4h1.5v-1.4Zm1.4 0h-1.4v1.4h1.4v-1.4Zm1.4 0h-1.4v1.4h1.4v-1.4Zm1.5 0h-1.5v1.4h1.5v-1.4Z"/><path fill="#000" d="M54 48.4h-1.4v1.4h1.5v-1.4Z"/><path fill="#000" d="M55.5 48.4H54v1.4h1.5v-1.4Zm2.9 0h-1.5v1.4h1.5v-1.4Zm-42.7 1.4h-1.5v1.4h1.5v-1.4Zm2.8 0h-1.4v1.4h1.4v-1.4Zm1.5 0h-1.5v1.4H20v-1.4Z"/><path fill="#000" d="M21.4 49.8h-1.5v1.4h1.5v-1.4Z"/><path fill="#000" d="M22.8 49.8h-1.5v1.4h1.5v-1.4Zm1.4 0h-1.4v1.4h1.4v-1.4Zm2.8 0h-1.4v1.4h1.5v-1.4Z"/><path fill="#000" d="M28.5 49.8H27v1.4h1.5v-1.4Zm2.8 0H30v1.4h1.4v-1.4Zm2.9 0h-1.5v1.4h1.5v-1.4Z"/><path fill="#000" d="M35.6 49.8h-1.5v1.4h1.5v-1.4Zm1.4 0h-1.4v1.4H37v-1.4Zm4.3 0h-1.5v1.4h1.5v-1.4Zm2.8 0h-1.4v1.4H44v-1.4Z"/><path fill="#000" d="M45.6 49.8H44v1.4h1.5v-1.4Z"/><path fill="#000" d="M47 49.8h-1.5v1.4H47v-1.4Zm2.8 0h-1.4v1.4h1.4v-1.4Zm5.7 0H54v1.4h1.5v-1.4Zm4.3 0h-1.5v1.4h1.5v-1.4Z"/><path fill="#000" d="M61.2 49.8h-1.5v1.4h1.5v-1.4ZM20 51.2h-1.5v1.5H20v-1.5Z"/><path fill="#000" d="M21.4 51.2h-1.5v1.5h1.5v-1.5Z"/><path fill="#000" d="M22.8 51.2h-1.5v1.5h1.5v-1.5Zm1.4 0h-1.4v1.5h1.4v-1.5Zm1.4 0h-1.4v1.5h1.4v-1.5Zm2.9 0H27v1.5h1.5v-1.5Zm2.8 0H30v1.5h1.4v-1.5Zm5.7 0h-1.4v1.5H37v-1.5Zm2.9 0h-1.5v1.5h1.5v-1.5Z"/><path fill="#000" d="M41.3 51.2h-1.5v1.5h1.5v-1.5Z"/><path fill="#000" d="M42.7 51.2h-1.5v1.5h1.5v-1.5Zm1.4 0h-1.4v1.5H44v-1.5Z"/><path fill="#000" d="M45.6 51.2H44v1.5h1.5v-1.5Zm2.8 0h-1.5v1.5h1.5v-1.5Zm1.4 0h-1.4v1.5h1.4v-1.5Zm2.9 0h-1.5v1.5h1.5v-1.5Zm2.8 0H54v1.5h1.5v-1.5Zm1.5 0h-1.5v1.5h1.4v-1.5Zm-31.4 1.4h-1.4v1.5h1.4v-1.5Zm1.4 0h-1.4v1.5h1.5v-1.5Zm3 0h-1.6v1.5H30v-1.5Zm1.3 0H30v1.5h1.4v-1.5Z"/><path fill="#000" d="M32.8 52.6h-1.5v1.5h1.5v-1.5Zm2.8 0h-1.5v1.5h1.5v-1.5Zm1.4 0h-1.4v1.5H37v-1.5Zm7.1 0h-1.4v1.5H44v-1.5Z"/><path fill="#000" d="M45.6 52.6H44v1.5h1.5v-1.5Z"/><path fill="#000" d="M47 52.6h-1.5v1.5H47v-1.5Zm2.8 0h-1.4v1.5h1.4v-1.5Zm5.7 0H54v1.5h1.5v-1.5Zm1.5 0h-1.5v1.5h1.4v-1.5Zm2.8 0h-1.5v1.5h1.5v-1.5ZM15.7 54h-1.5v1.5h1.5V54Z"/><path fill="#000" d="M17.1 54h-1.5v1.5h1.5V54Zm4.3 0h-1.5v1.5h1.5V54Z"/><path fill="#000" d="M22.8 54h-1.5v1.5h1.5V54Zm1.4 0h-1.4v1.5h1.4V54Zm4.3 0H27v1.5h1.5V54Zm8.5 0h-1.4v1.5H37V54Zm2.9 0h-1.5v1.5h1.5V54Zm9.9 0h-1.4v1.5h1.4V54Zm1.4 0h-1.4v1.5h1.4V54Zm1.5 0h-1.5v1.5h1.5V54Z"/><path fill="#000" d="M54 54h-1.4v1.5h1.5V54Z"/><path fill="#000" d="M55.5 54H54v1.5h1.5V54Zm1.5 0h-1.5v1.5h1.4V54Z"/><path fill="#000" d="M58.4 54h-1.5v1.5h1.5V54Z"/><path fill="#000" d="M59.8 54h-1.5v1.5h1.5V54Zm-44.1 1.5h-1.5v1.4h1.5v-1.4Z"/><path fill="#000" d="M17.1 55.5h-1.5v1.4h1.5v-1.4Zm4.3 0h-1.5v1.4h1.5v-1.4Z"/><path fill="#000" d="M22.8 55.5h-1.5v1.4h1.5v-1.4Zm1.4 0h-1.4v1.4h1.4v-1.4Zm7.1 0H30v1.4h1.4v-1.4Zm2.9 0h-1.5v1.4h1.5v-1.4Zm2.8 0h-1.4v1.4H37v-1.4Zm1.4 0H37v1.4h1.4v-1.4Zm2.9 0h-1.5v1.4h1.5v-1.4Zm2.8 0h-1.4v1.4H44v-1.4Zm2.9 0h-1.5v1.4H47v-1.4Z"/><path fill="#000" d="M48.4 55.5h-1.5v1.4h1.5v-1.4Zm1.4 0h-1.4v1.4h1.4v-1.4Zm1.4 0h-1.4v1.4h1.4v-1.4Zm2.8 0h-1.4v1.4h1.5v-1.4Zm3 0h-1.5v1.4h1.4v-1.4Z"/><path fill="#000" d="M58.4 55.5h-1.5v1.4h1.5v-1.4Z"/><path fill="#000" d="M59.8 55.5h-1.5v1.4h1.5v-1.4Z"/><path fill="#000" d="M61.2 55.5h-1.5v1.4h1.5v-1.4Zm-45.5 1.4h-1.5v1.5h1.5v-1.5Zm2.8 0h-1.4v1.5h1.4v-1.5Zm4.3 0h-1.5v1.5h1.5v-1.5Zm4.2 0h-1.4v1.5h1.5v-1.5Z"/><path fill="#000" d="M28.5 56.9H27v1.5h1.5v-1.5Zm2.8 0H30v1.5h1.4v-1.5Zm2.9 0h-1.5v1.5h1.5v-1.5Z"/><path fill="#000" d="M35.6 56.9h-1.5v1.5h1.5v-1.5Zm1.4 0h-1.4v1.5H37v-1.5Zm4.3 0h-1.5v1.5h1.5v-1.5Z"/><path fill="#000" d="M42.7 56.9h-1.5v1.5h1.5v-1.5Zm1.4 0h-1.4v1.5H44v-1.5Z"/><path fill="#000" d="M45.6 56.9H44v1.5h1.5v-1.5Z"/><path fill="#000" d="M47 56.9h-1.5v1.5H47v-1.5Z"/><path fill="#000" d="M48.4 56.9h-1.5v1.5h1.5v-1.5Zm1.4 0h-1.4v1.5h1.4v-1.5Zm1.4 0h-1.4v1.5h1.4v-1.5Zm1.5 0h-1.5v1.5h1.5v-1.5Z"/><path fill="#000" d="M54 56.9h-1.4v1.5h1.5v-1.5Z"/><path fill="#000" d="M55.5 56.9H54v1.5h1.5v-1.5Zm2.9 0h-1.5v1.5h1.5v-1.5Z"/><path fill="#000" d="M59.8 56.9h-1.5v1.5h1.5v-1.5Zm-42.7 1.4h-1.5v1.5h1.5v-1.5Zm1.4 0h-1.4v1.5h1.4v-1.5Zm1.5 0h-1.5v1.5H20v-1.5Zm4.2 0h-1.4v1.5h1.4v-1.5Zm8.6 0h-1.5v1.5h1.5v-1.5Z"/><path fill="#000" d="M34.2 58.3h-1.5v1.5h1.5v-1.5Z"/><path fill="#000" d="M35.6 58.3h-1.5v1.5h1.5v-1.5Zm1.4 0h-1.4v1.5H37v-1.5Zm1.4 0H37v1.5h1.4v-1.5Zm2.9 0h-1.5v1.5h1.5v-1.5Z"/><path fill="#000" d="M42.7 58.3h-1.5v1.5h1.5v-1.5Zm7.1 0h-1.4v1.5h1.4v-1.5Zm2.9 0h-1.5v1.5h1.5v-1.5Zm2.8 0H54v1.5h1.5v-1.5Zm1.5 0h-1.5v1.5h1.4v-1.5Z"/><path fill="#000" d="M58.4 58.3h-1.5v1.5h1.5v-1.5Z"/><path fill="#000" d="M59.8 58.3h-1.5v1.5h1.5v-1.5Zm-41.3 1.4h-1.4v1.5h1.4v-1.5Zm4.3 0h-1.5v1.5h1.5v-1.5Zm1.4 0h-1.4v1.5h1.4v-1.5Zm2.8 0h-1.4v1.5h1.5v-1.5Z"/><path fill="#000" d="M28.5 59.7H27v1.5h1.5v-1.5Z"/><path fill="#000" d="M30 59.7h-1.6v1.5H30v-1.5Zm1.3 0H30v1.5h1.4v-1.5Z"/><path fill="#000" d="M32.8 59.7h-1.5v1.5h1.5v-1.5Z"/><path fill="#000" d="M34.2 59.7h-1.5v1.5h1.5v-1.5Zm2.8 0h-1.4v1.5H37v-1.5Zm2.9 0h-1.5v1.5h1.5v-1.5Z"/><path fill="#000" d="M41.3 59.7h-1.5v1.5h1.5v-1.5Z"/><path fill="#000" d="M42.7 59.7h-1.5v1.5h1.5v-1.5Zm2.9 0H44v1.5h1.5v-1.5Zm2.8 0h-1.5v1.5h1.5v-1.5Zm2.8 0h-1.4v1.5h1.4v-1.5Zm1.5 0h-1.5v1.5h1.5v-1.5Z"/><path fill="#000" d="M54 59.7h-1.4v1.5h1.5v-1.5Z"/><path fill="#000" d="M55.5 59.7H54v1.5h1.5v-1.5ZM2.8 2.8v10h10v-10h-10Zm8.6 8.6H4.3V4.3h7v7Zm39.8-8.6v10h10v-10h-10Zm8.5 8.6h-7V4.3h7v7ZM2.8 51.2v10h10v-10h-10Zm8.6 8.5H4.3v-7h7v7Z"/><path fill="#000" d="M10 5.7H5.7V10H10V5.7Zm48.3 0H54V10h4.3V5.7ZM10 54H5.7v4.3H10V54Z"/></g><defs><clipPath id="a"><path fill="#fff" d="M0 0h64v64H0z"/></clipPath></defs></svg>